# xmcd CD database file generated by Grip 3.2.0
# 
# Track frame offsets:
#       150
#       27000
#       46265
#       70700
#       101537
#       130400
#       149275
#       176500
#       202950
#       220600
#       245775
#       292425
# 
# Disc length: 4182 seconds
# 
# Revision: 4
# Processed by: cddbd v1.5.2PL0 Copyright (c) Steve Scherf et al.
# Submitted via: Grip 3.2.0
# 
DISCID=b510540c
DTITLE=Long John Baldry - On Stage Tonight - Baldry's Out!
DYEAR=1993
DGENRE=Blues
TTITLE0=Everyday I have the blues/Times Are Getting Tougher Then Tough
TTITLE1=Shake That Thing
TTITLE2=Insane Asylum
TTITLE3=I'm Ready
TTITLE4=I'd Rather Go Blind
TTITLE5=Baldry's Out
TTITLE6=A Thrill's A Thrill
TTITLE7=Backwater Blues
TTITLE8=It Ain't Easy
TTITLE9=Stormy Monday Blues
TTITLE10=Don't Try To Lay No Boogie Woogie On The King Of Rock And Roll
TTITLE11=Midnight In New Orleans
EXTD=
EXTT0=
EXTT1=
EXTT2=
EXTT3=
EXTT4=
EXTT5=
EXTT6=
EXTT7=
EXTT8=
EXTT9=
EXTT10=
EXTT11=
PLAYORDER=
